<svg xmlns="http://www.w3.org/2000/svg" version="1.1" xmlns:xlink="http://www.w3.org/1999/xlink" width="512" height="512" x="0" y="0" viewBox="0 0 512 512" style="enable-background:new 0 0 512 512" xml:space="preserve"><g><path d="M35.031 310.665a11.748 11.748 0 0 1 3.189 11.9l-7.743 28.9a44.374 44.374 0 0 0 31.34 54.283l30.151 8.078a11.747 11.747 0 0 1 8.713 8.713l7.742 28.9a44.378 44.378 0 0 0 54.284 31.34l30.149-8.079a11.748 11.748 0 0 1 11.9 3.189l21.154 21.155a44.375 44.375 0 0 0 62.681 0l22.072-22.072a11.745 11.745 0 0 1 11.9-3.189l28.9 7.743a44.377 44.377 0 0 0 54.283-31.34l8.078-30.151a11.747 11.747 0 0 1 8.713-8.713l28.9-7.742a44.376 44.376 0 0 0 31.34-54.284l-8.079-30.15a11.75 11.75 0 0 1 3.189-11.9l21.155-21.154a44.376 44.376 0 0 0 0-62.68l-22.072-22.073a11.746 11.746 0 0 1-3.189-11.9l7.743-28.9a44.374 44.374 0 0 0-31.34-54.283l-30.151-8.078a11.747 11.747 0 0 1-8.713-8.713l-7.742-28.9a44.376 44.376 0 0 0-54.284-31.34l-30.15 8.075a11.744 11.744 0 0 1-11.9-3.19l-21.157-21.151a44.374 44.374 0 0 0-62.681 0l-22.071 22.072a11.746 11.746 0 0 1-11.9 3.189l-28.9-7.743a44.372 44.372 0 0 0-54.283 31.341l-8.079 30.15a11.747 11.747 0 0 1-8.713 8.713l-28.9 7.742a44.378 44.378 0 0 0-31.34 54.284l8.08 30.149a11.751 11.751 0 0 1-3.189 11.9l-21.152 21.157a44.377 44.377 0 0 0 0 62.681Zm.555-62.124 21.155-21.155a43.871 43.871 0 0 0 11.471-42.812l-8.079-30.15a12.377 12.377 0 0 1 8.713-15.091l28.9-7.743a43.867 43.867 0 0 0 31.339-31.34l8.079-30.15a12.342 12.342 0 0 1 15.092-8.714l28.9 7.744a43.873 43.873 0 0 0 42.811-11.471l22.072-22.073a12.337 12.337 0 0 1 17.425 0l21.149 21.154a43.869 43.869 0 0 0 42.812 11.472l30.151-8.079a12.377 12.377 0 0 1 15.091 8.713l7.743 28.9a43.867 43.867 0 0 0 31.34 31.339l30.15 8.079a12.337 12.337 0 0 1 8.714 15.091l-7.744 28.9a43.87 43.87 0 0 0 11.472 42.811l22.072 22.072a12.377 12.377 0 0 1 0 17.425l-21.155 21.155a43.872 43.872 0 0 0-11.471 42.812l8.079 30.15a12.377 12.377 0 0 1-8.713 15.091l-28.9 7.743a43.867 43.867 0 0 0-31.34 31.34l-8.079 30.15a12.378 12.378 0 0 1-15.091 8.714l-28.9-7.744a43.871 43.871 0 0 0-42.811 11.472l-22.071 22.072a12.338 12.338 0 0 1-17.426 0l-21.155-21.155a43.833 43.833 0 0 0-31.14-13.022 45.059 45.059 0 0 0-11.672 1.551l-30.15 8.079a12.377 12.377 0 0 1-15.091-8.713l-7.743-28.9a43.867 43.867 0 0 0-31.34-31.339L70.1 374.838a12.337 12.337 0 0 1-8.714-15.091l7.744-28.9a43.872 43.872 0 0 0-11.471-42.811l-22.073-22.07a12.377 12.377 0 0 1 0-17.425ZM256 400.246c79.538 0 144.247-64.708 144.247-144.246S335.538 111.753 256 111.753 111.754 176.462 111.754 256 176.462 400.246 256 400.246Zm0-256.493A112.247 112.247 0 1 1 143.754 256 112.374 112.374 0 0 1 256 143.753Zm-40.949 166.914-43.072-49.855a16 16 0 0 1 24.215-20.92l32.531 37.654 88.635-77.779a16 16 0 1 1 21.106 24.052l-100.755 88.415a16 16 0 0 1-10.552 3.974q-.55 0-1.1-.039a16 16 0 0 1-11.008-5.502Z" fill="#ffffff" opacity="1" data-original="#000000"></path></g></svg>