<svg xmlns="http://www.w3.org/2000/svg" version="1.1" xmlns:xlink="http://www.w3.org/1999/xlink" width="512" height="512" x="0" y="0" viewBox="0 0 8.467 8.467" style="enable-background:new 0 0 512 512" xml:space="preserve"><g><path fill-rule="evenodd" d="M4.237.26a.265.265 0 0 0-.027.002.265.265 0 0 0-.235.268v.53a.265.265 0 1 0 .53 0V.53a.265.265 0 0 0-.268-.27zM1.614 1.348a.265.265 0 0 0-.028.002.265.265 0 0 0-.156.453l.374.376a.266.266 0 1 0 .375-.376l-.375-.373a.265.265 0 0 0-.19-.082zm5.244.002a.265.265 0 0 0-.181.08l-.376.374a.266.266 0 1 0 .376.375l.373-.375a.265.265 0 0 0-.192-.454zm-2.618.505A2.389 2.389 0 0 0 1.855 4.24c0 .82.427 1.534 1.06 1.962v.688a.265.265 0 0 0 .265.265H5.3a.265.265 0 0 0 .265-.265v-.688a2.37 2.37 0 0 0 1.06-1.962A2.389 2.389 0 0 0 4.24 1.855zm0 .53c1.028 0 1.855.827 1.855 1.855a1.85 1.85 0 0 1-.928 1.604.265.265 0 0 0-.132.23v.551h-1.59v-.551a.265.265 0 0 0-.132-.23 1.85 1.85 0 0 1-.928-1.604c0-1.028.827-1.855 1.855-1.855zm-.001.53A1.33 1.33 0 0 0 2.914 4.24a.265.265 0 1 0 .531 0c0-.442.352-.796.794-.796a.265.265 0 0 0 0-.53zM.53 3.974a.265.265 0 1 0 0 .53h.53a.265.265 0 1 0 0-.53zm6.89 0a.265.265 0 1 0 0 .53h.53a.265.265 0 1 0 0-.53zM1.99 6.22a.265.265 0 0 0-.005 0 .265.265 0 0 0-.181.081l-.374.375a.265.265 0 1 0 .374.374l.375-.374a.265.265 0 0 0-.19-.456zm4.497 0a.265.265 0 0 0-.186.456l.376.374a.265.265 0 1 0 .373-.374l-.373-.375a.265.265 0 0 0-.19-.08zM3.685 7.687a.265.265 0 0 0-.001 0 .265.265 0 0 0 .027.53h1.058a.265.265 0 1 0 0-.53H3.711a.265.265 0 0 0-.026 0z" paint-order="stroke fill markers" fill="#ffffff" opacity="1" data-original="#000000"></path></g></svg>