<?xml version="1.0" encoding="utf-8"?>
<!-- Generator: Adobe Illustrator 28.1.0, SVG Export Plug-In . SVG Version: 6.00 Build 0)  -->
<svg version="1.1" id="Capa_2_00000174566803211895456080000001344115909963506068_"
	 xmlns="http://www.w3.org/2000/svg" xmlns:xlink="http://www.w3.org/1999/xlink" x="0px" y="0px" viewBox="0 0 380 77.4"
	 style="enable-background:new 0 0 380 77.4;" xml:space="preserve">
<style type="text/css">
	.st0{fill:#FFFFFF;}
</style>
<g id="Capa_1-2">
	<g>
		<g>
			<path class="st0" d="M85.8,20.2v1.5h-4.4v-1.8c0-7.4-2.8-13-10.4-13s-10.4,5.5-10.4,12.9c0,17,25.3,17.3,25.3,36.6
				c0,10.1-4.4,17.5-15.1,17.5s-15.1-7.4-15.1-17.5v-3.6h4.4v3.9c0,7.5,2.9,12.9,10.6,12.9s10.6-5.4,10.6-12.9
				C81.3,40,56,39.7,56,20.1C56,9.6,60.6,2.8,70.9,2.7C81.5,2.7,85.8,10.1,85.8,20.2L85.8,20.2z"/>
			<path class="st0" d="M93,20.4c0-10.2,4.7-17.7,15.3-17.7s15.5,7.5,15.5,17.7v35.8c0,10.2-4.7,17.7-15.5,17.7S93,66.5,93,56.3
				V20.4z M97.6,56.6c0,7.6,3,13.2,10.7,13.2s10.9-5.6,10.9-13.2V20.1c0-7.6-3.1-13.2-10.9-13.2s-10.7,5.6-10.7,13.2V56.6L97.6,56.6
				z"/>
			<path class="st0" d="M154.2,37.5v4.2h-18.1v31.7h-4.6V3.3h26.6v4.2h-22v29.9H154.2L154.2,37.5z"/>
			<path class="st0" d="M170.5,57.9L167,73.4h-4.2l15.3-70.2h6.7l15.6,70.2h-4.6l-3.5-15.5L170.5,57.9L170.5,57.9z M171.2,53.9h20.4
				L181.3,8.5L171.2,53.9z"/>
		</g>
		<g>
			<path class="st0" d="M239.1,52.9l7.6-50.2h15.4v70.7h-10.5V22.7L244,73.4h-10.5l-8.3-50v50h-9.7V2.7H231L239.1,52.9L239.1,52.9z"
				/>
			<path class="st0" d="M270.2,2.7h11.1v70.7h-11.1V2.7z"/>
			<path class="st0" d="M313,52.9l7.6-50.2H336v70.7h-10.5V22.7l-7.7,50.7h-10.5l-8.3-50v50h-9.7V2.7h15.5L313,52.9L313,52.9z"/>
			<path class="st0" d="M380,73.4h-11.2l-1.9-12.8h-13.6l-1.9,12.8h-10.2l11.3-70.7h16.3L380,73.4L380,73.4z M354.6,51h10.7
				L360,15.2L354.6,51z"/>
		</g>
		<g>
			<path class="st0" d="M30.2,39.6l-2-0.2l0.7-1.9c0-0.1,0.1-0.3,0.1-0.4l0.1-0.4c0.1-0.3,0.2-0.6,0.2-0.9c0.1-0.2,0.1-0.5,0.2-0.7
				c-1.2-0.3-2.4-0.6-3.6-0.9c-0.8-0.2-1.7-0.3-2.5-0.4c-0.9-0.1-1.7-0.2-2.5-0.2c-0.8,0-1.7,0-2.5,0.1c-0.8,0.1-1.6,0.2-2.4,0.3
				c-0.8,0.1-1.6,0.3-2.4,0.5c-0.8,0.2-1.6,0.5-2.4,0.9l-0.1-0.1c0.5-0.8,1.2-1.5,1.9-2c0.8-0.5,1.6-0.9,2.6-1.2
				c0.5-0.1,0.9-0.2,1.4-0.3c0.2,0,0.5,0,0.7-0.1c0.2,0,0.5,0,0.7,0c0.9,0,1.8,0.1,2.7,0.2s1.8,0.3,2.6,0.5c0.9,0.2,1.7,0.5,2.6,0.7
				c0.8,0.3,1.7,0.6,2.5,0.9c0.3,0.1,0.6,0.3,1,0.4c0-0.2,0.1-0.5,0.1-0.7c0.2-1.2,0.4-2.5,0.6-3.7c0.3-2.5,0.4-5.1,0.2-7.6
				c-0.1-2.5-0.5-5.1-1.1-7.6c-0.3-1.2-0.6-2.5-1-3.7c-0.2-0.6-0.4-1.2-0.6-1.8c-0.2-0.6-0.5-1.2-0.7-1.8c1.6,2.1,2.8,4.5,3.8,7
				c1,2.5,1.7,5.1,2.1,7.8c0.4,2.7,0.5,5.4,0.3,8.1c-0.1,1.4-0.2,2.7-0.5,4c-0.1,0.7-0.2,1.3-0.4,2c0,0,0,0.1,0,0.1
				c2.1,0.2,4.1,0.5,6.2,0.9v3C35.8,40.1,33,39.8,30.2,39.6L30.2,39.6z"/>
			<path class="st0" d="M30.7,47.3c-1.3,0.2-2.6,0.4-3.9,0.7c-1.3,0.3-2.6,0.6-3.9,1s-2.5,0.8-3.8,1.2c-1.3,0.5-2.5,1-3.8,1.5
				c-2.5,1-4.9,2.2-7.4,3.5s-4.8,2.6-7.2,4.1c0.9-1.1,1.9-2.1,2.9-3c1-1,2.1-1.9,3.2-2.7c2.2-1.7,4.6-3.3,7-4.7
				c1.2-0.7,2.5-1.3,3.8-1.9c1.3-0.6,2.6-1.1,4-1.6c1.4-0.5,2.7-0.9,4.1-1.2c1.4-0.3,2.8-0.6,4.3-0.8c1.4-0.2,2.9-0.3,4.4-0.3
				c1.3,0,2.6,0.1,3.9,0.2v3.9C35.9,46.8,33.3,46.9,30.7,47.3L30.7,47.3z"/>
			<path class="st0" d="M38.2,3.5c-0.2,0-0.4-0.1-0.6-0.2c-0.2,0-0.4-0.1-0.6-0.1c-0.8-0.2-1.7-0.3-2.6-0.5
				c-0.9-0.1-1.7-0.2-2.6-0.3l-0.6,0l-0.6,0l-0.6,0h-0.3h-0.3l-1.3,0l-1.3,0.1c-1.8,0.2-3.5,0.6-5.2,1.1c1.5-1.1,3.1-2,4.9-2.6
				l1.4-0.4c0.5-0.1,0.9-0.2,1.4-0.3l0.4-0.1c0.1,0,0.2,0,0.4,0l0.7-0.1l0.7-0.1c0.2,0,0.5,0,0.7,0l0.7,0c0.2,0,0.5,0,0.7,0l1.4,0
				c0.9,0.1,1.9,0.1,2.8,0.3c0.3,0,0.7,0.1,1,0.2v3.1C38.4,3.5,38.3,3.5,38.2,3.5L38.2,3.5z"/>
			<path class="st0" d="M10.4,60.8c1,0.2,1.9,0.5,2.9,0.7l2.9,0.7c1,0.2,1.9,0.5,2.9,0.6c3.8,0.8,7.7,1.3,11.5,1.5
				c2.6,0.1,5.3,0.1,7.9-0.2v3.7c-2.7,0.5-5.4,0.7-8.1,0.5c-4.2-0.2-8.3-1.1-12.2-2.5c-3.9-1.4-7.5-3.3-10.8-5.8
				C8.5,60.3,9.4,60.5,10.4,60.8L10.4,60.8z"/>
			<path class="st0" d="M0,70.6c0-1.3,0.2-2.5,0.5-3.7c0.3-1.2,0.6-2.4,1.1-3.6l0.2,0C2,64.5,2.1,65.7,2.1,67s0.1,2.4,0.1,3.6
				c0,1.2,0,2.4,0.1,3.5c0.1,0.6,0.2,1.1,0.3,1.5C2.8,75.7,2.9,75.9,3,76c0.1,0.1,0.2,0.2,0.4,0.2c0.2,0,0.4,0,0.6-0.1
				c0.2-0.1,0.4-0.3,0.6-0.5c0.3-0.4,0.6-1,0.8-1.6c0.3-1.2,0.3-2.4,0.3-3.6c0-0.6,0.1-1.2,0.2-1.8c0.1-0.6,0.2-1.2,0.3-1.8
				c0.2-1.2,0.5-2.4,1-3.6h0.2c0.2,0.6,0.3,1.2,0.4,1.9C8,65.8,8,66.4,8,67c0,0.6,0,1.2-0.1,1.9c-0.1,0.6-0.2,1.2-0.3,1.8
				c-0.4,1.2-1,2.4-1.5,3.5c-0.2,0.6-0.5,1.2-0.8,1.7c-0.2,0.3-0.4,0.6-0.6,0.8c-0.3,0.3-0.6,0.5-1,0.6c-0.2,0.1-0.4,0.1-0.7,0.1
				c-0.2,0-0.5-0.1-0.7-0.2c-0.4-0.2-0.7-0.5-1-0.8c-0.5-0.7-0.7-1.3-0.9-2C0.1,73.1-0.1,71.8,0,70.6L0,70.6z"/>
			<path class="st0" d="M16,41.5c0.8,0.1,1.5,0.1,2.3,0.2c0.8,0.1,1.6,0.1,2.4,0.1c0.8,0,1.6-0.1,2.4-0.2c0.8-0.1,1.6-0.2,2.4-0.3
				c1.6-0.3,3.2-0.6,4.8-1l0.1,0.2c-1.5,0.7-3.1,1.2-4.6,1.8c-0.8,0.2-1.6,0.5-2.4,0.7c-0.8,0.2-1.6,0.3-2.5,0.5s-1.7,0.2-2.5,0.3
				s-1.7,0-2.6-0.2c-0.9-0.2-1.7-0.5-2.5-1s-1.4-1.2-1.8-2l0.1-0.1c0.7,0.4,1.4,0.7,2.2,0.9C14.5,41.3,15.3,41.4,16,41.5L16,41.5z"
				/>
		</g>
		<rect x="39.5" class="st0" width="1.6" height="77.4"/>
	</g>
</g>
</svg>
