<svg xmlns="http://www.w3.org/2000/svg" version="1.1" xmlns:xlink="http://www.w3.org/1999/xlink" width="512" height="512" x="0" y="0" viewBox="0 0 512 512" style="enable-background:new 0 0 512 512" xml:space="preserve"><g><path d="M397.952 80.16H114.416c-36 0-66.416 30.432-66.416 66.464v61.536c0 8.832 7.168 16 16 16s16-7.168 16-16v-61.536c0-18.688 15.76-34.464 34.416-34.464h283.536c18.448 0 34.048 15.776 34.048 34.464v61.536c0 8.832 7.168 16 16 16s16-7.168 16-16v-61.536c0-36.64-29.632-66.464-66.048-66.464z" fill="#ffffff" opacity="1" data-original="#000000"></path><path d="M64.864 192.16H48.176C22.064 192.16 0 214.4 0 240.72v95.44c0 8.832 7.168 16 16 16s16-7.168 16-16v-95.44c0-8.512 7.856-16.56 16.176-16.56h16.688c8.064 0 15.136 7.744 15.136 16.56v63.44c0 8.832 7.168 16 16 16s16-7.168 16-16v-63.44c0-26.32-21.584-48.56-47.136-48.56z" fill="#ffffff" opacity="1" data-original="#000000"></path><path d="M466 192.16h-20.72c-24.544 0-45.28 21.52-45.28 47.008v64.992c0 8.832 7.168 16 16 16s16-7.168 16-16v-64.992c0-7.712 6.448-15.008 13.28-15.008H466c7.056 0 14 7.44 14 15.008v93.168c0 19.76-16.544 35.824-36.88 35.824H69.088c-19.968 0-36.224-16.128-36.224-35.968 0-8.832-7.168-16-16-16s-16 7.168-16 16c0 37.472 30.608 67.968 68.224 67.968H443.12c37.984 0 68.88-30.416 68.88-67.824v-93.168c0-25.488-21.056-47.008-46-47.008z" fill="#ffffff" opacity="1" data-original="#000000"></path><path d="M416 288.16H96c-8.832 0-16 7.168-16 16s7.168 16 16 16h320c8.832 0 16-7.168 16-16s-7.168-16-16-16zM95.552 368.64c-2.8 0-5.424.72-7.712 1.984a15.886 15.886 0 0 0-7.712-1.984c-8.832 0-16 7.168-16 16v31.2c0 8.832 7.168 16 16 16h15.44c8.832 0 16-7.152 15.984-16v-31.2c0-8.832-7.168-16-16-16zM432.096 368.64c-2.976 0-5.744.8-8.128 2.208a15.898 15.898 0 0 0-8.128-2.208c-8.832 0-16 7.168-16 16v31.2c0 8.832 7.168 16 16 16h16.256c8.832 0 16-7.152 16-16v-31.2c0-8.832-7.168-16-16-16z" fill="#ffffff" opacity="1" data-original="#000000"></path></g></svg>