<svg xmlns="http://www.w3.org/2000/svg" version="1.1" xmlns:xlink="http://www.w3.org/1999/xlink" width="512" height="512" x="0" y="0" viewBox="0 0 300 300" style="enable-background:new 0 0 512 512" xml:space="preserve" class=""><g><path d="M240 114c7.719 0 14-6.281 14-14s-6.281-14-14-14-14 6.281-14 14 6.281 14 14 14zm0-20c3.309 0 6 2.691 6 6s-2.691 6-6 6-6-2.691-6-6 2.691-6 6-6zM238.328 60.668a4.276 4.276 0 1 0 0-8.553 4.276 4.276 0 0 0 0 8.553zM244 162c-2.155 0-4.174.53-6 1.404v-6.41c0-10.473-8.586-18.994-19.141-18.994h-14.287v.029a22.184 22.184 0 0 0-2.572-1.558V110c0-11.027-8.973-20-20-20s-20 8.973-20 20v9.926c0 5.58 2.098 10.668 5.525 14.559a21.98 21.98 0 0 0-8.09 3.538c-.04-.001-.073-.023-.113-.023H79.625C69.906 138 62 145.906 62 155.625v7.779c-1.826-.874-3.845-1.404-6-1.404-7.719 0-14 6.281-14 14v40c0 7.719 6.281 14 14 14 1.385 0 2.696-.264 3.96-.64.063.039.118.089.184.124l-8.294 16.585a4.001 4.001 0 0 0 3.578 5.789h11.145a3.999 3.999 0 0 0 3.359-1.828L82.881 230H190v29.53c-2.458 2.814-4 6.449-4 10.47a4 4 0 0 0 4 4h24a4 4 0 0 0 4-4c0-4.021-1.542-7.656-4-10.47V230h3.406l12.949 20.029a3.996 3.996 0 0 0 3.359 1.828h11.143a4.001 4.001 0 0 0 3.578-5.789L240.401 230H244c7.719 0 14-6.281 14-14v-40c0-7.719-6.281-14-14-14zm-14-5.006V206h-12v-16a4 4 0 0 0-4-4v-29.889c0-3.645-.902-7.077-2.471-10.111h7.33c6.143 0 11.141 4.932 11.141 10.994zm-24 97.574c-1.286-.334-2.611-.568-4-.568s-2.714.234-4 .568V214h5.346c.052 0 .096-.028.148-.03.775.681 1.61 1.281 2.507 1.804v38.794zM142 202c0-2.205 1.795-4 4-4h52.568c-.334 1.286-.568 2.611-.568 4s.234 2.714.568 4H146c-2.205 0-4-1.795-4-4zm30.111-60h19.777c7.781 0 14.111 6.33 14.111 14.111v32.115a15.933 15.933 0 0 0-2.47 1.774H158v-33.889c0-7.781 6.33-14.111 14.111-14.111zM210 195.074v13.852c-2.389-1.385-4-3.971-4-6.926s1.611-5.541 4-6.926zM170 110c0-6.617 5.383-12 12-12s12 5.383 12 12v24h-9.925c-7.76 0-14.074-6.314-14.074-14.074V110zM70 155.625c0-5.307 4.318-9.625 9.625-9.625h72.846A21.946 21.946 0 0 0 150 156.111V190h-4c-6.617 0-12 5.383-12 12 0 1.409.289 2.743.737 4H70v-30zM50 216v-40c0-3.309 2.691-6 6-6s6 2.691 6 6v40c0 3.309-2.691 6-6 6s-6-2.691-6-6zm14.395 27.857H61.9L68.831 230h4.523zM68.596 222c.874-1.826 1.404-3.845 1.404-6v-2h120v8zm126.478 44c1.385-2.389 3.971-4 6.926-4s5.541 1.611 6.926 4zM214 218a4 4 0 0 0 4-4h12v2c0 2.155.53 4.174 1.404 6H214zm24.385 25.857h-2.492L226.934 230h4.522zM250 216c0 3.309-2.691 6-6 6s-6-2.691-6-6v-40c0-3.309 2.691-6 6-6s6 2.691 6 6z" fill="#ffffff" opacity="1" data-original="#000000" class=""></path><path d="M198 186a4 4 0 0 0 4-4v-20a4 4 0 0 0-8 0v20a4 4 0 0 0 4 4zM166 186a4 4 0 0 0 4-4v-20a4 4 0 0 0-8 0v20a4 4 0 0 0 4 4zM94 122c22.057 0 40-17.943 40-40s-17.943-40-40-40-40 17.943-40 40 17.943 40 40 40zm0-72c17.645 0 32 14.355 32 32s-14.355 32-32 32-32-14.355-32-32 14.355-32 32-32z" fill="#ffffff" opacity="1" data-original="#000000" class=""></path><path d="M82.004 94c.666 0 1.34-.166 1.961-.516l12-6.77A3.996 3.996 0 0 0 98 83.23V66a4 4 0 0 0-8 0v14.895l-9.965 5.621a4.002 4.002 0 0 0-1.52 5.449A4.002 4.002 0 0 0 82.004 94zM186 50h8a4 4 0 0 0 0-8h-8a4 4 0 0 0 0 8zM178 42a4 4 0 0 0 4-4v-8a4 4 0 0 0-8 0v8a4 4 0 0 0 4 4zM178 50a4 4 0 0 0-4 4v8a4 4 0 0 0 8 0v-8a4 4 0 0 0-4-4zM162 50h8a4 4 0 0 0 0-8h-8a4 4 0 0 0 0 8z" fill="#ffffff" opacity="1" data-original="#000000" class=""></path></g></svg>